<?xml version="1.0" encoding="utf-8"?>
<!-- Generator: Adobe Illustrator 15.1.0, SVG Export Plug-In . SVG Version: 6.00 Build 0)  -->
<!DOCTYPE svg PUBLIC "-//W3C//DTD SVG 1.1//EN" "http://www.w3.org/Graphics/SVG/1.1/DTD/svg11.dtd">
<svg version="1.1" id="Layer_1" xmlns="http://www.w3.org/2000/svg" xmlns:xlink="http://www.w3.org/1999/xlink" x="0px" y="0px"
	 width="28px" height="26.2px" viewBox="0 0 28 26.2" enable-background="new 0 0 28 26.2" xml:space="preserve">
<g>
	<path fill="#3A559F" d="M23.043,26.199H4.958c-2.707,0-4.901-2.195-4.901-4.902V4.903c0-2.707,2.194-4.901,4.901-4.901h18.085
		c2.707,0,4.9,2.194,4.9,4.901v16.394C27.943,24.004,25.75,26.199,23.043,26.199z"/>
	<path fill="#FDFDFD" d="M14.306,26.199c-0.004-3.025-0.019-6.051-0.002-9.076c0.003-0.455-0.104-0.607-0.573-0.582
		c-0.772,0.039-1.55,0-2.324,0.016c-0.282,0.006-0.389-0.076-0.385-0.371c0.015-1.053,0.02-2.104-0.002-3.155
		c-0.008-0.367,0.152-0.421,0.463-0.42c0.865,0.004,1.73-0.02,2.597-0.032c0.039-0.005,0.078-0.009,0.118-0.013
		c0.188-0.184,0.083-0.416,0.091-0.624c0.044-1.159-0.138-2.336,0.086-3.478c0.403-2.061,2.036-3.402,4.188-3.5
		c1.029-0.047,2.064-0.001,3.096-0.019c0.328-0.005,0.4,0.126,0.396,0.425c-0.018,0.903-0.021,1.808,0.002,2.711
		c0.008,0.35-0.115,0.433-0.443,0.436c-0.773,0.007-1.549-0.075-2.318,0.053c-0.035,0.006-0.07,0.01-0.105,0.016
		c-0.676,0.213-0.959,0.711-0.971,1.381c-0.014,0.739,0.014,1.479-0.01,2.217c-0.012,0.35,0.119,0.445,0.449,0.439
		c0.961-0.017,1.922,0.008,2.883-0.013c0.342-0.007,0.453,0.076,0.398,0.437c-0.162,1.04-0.307,2.083-0.42,3.127
		c-0.035,0.326-0.166,0.389-0.455,0.383c-0.756-0.016-1.516,0.021-2.271-0.016c-0.449-0.021-0.594,0.096-0.588,0.57
		c0.023,2.826,0.012,5.654,0.01,8.48c0,0.203-0.018,0.404-0.027,0.607C16.893,26.199,15.6,26.199,14.306,26.199z"/>
</g>
</svg>
