<?xml version="1.0" encoding="utf-8"?>
<!-- Generator: Adobe Illustrator 15.1.0, SVG Export Plug-In . SVG Version: 6.00 Build 0)  -->
<!DOCTYPE svg PUBLIC "-//W3C//DTD SVG 1.1//EN" "http://www.w3.org/Graphics/SVG/1.1/DTD/svg11.dtd">
<svg version="1.1" id="Layer_1" xmlns="http://www.w3.org/2000/svg" xmlns:xlink="http://www.w3.org/1999/xlink" x="0px" y="0px"
	 width="28px" height="26.2px" viewBox="0 0 28 26.2" enable-background="new 0 0 28 26.2" xml:space="preserve">
<g>
	<linearGradient id="SVGID_1_" gradientUnits="userSpaceOnUse" x1="3.187" y1="1.7769" x2="26.2506" y2="25.9258">
		<stop  offset="0" style="stop-color:#5760AA"/>
		<stop  offset="0.5503" style="stop-color:#DC526C"/>
		<stop  offset="0.9831" style="stop-color:#F4B25F"/>
	</linearGradient>
	<path fill="url(#SVGID_1_)" d="M23.043,26.197H4.958c-2.707,0-4.901-2.194-4.901-4.901V4.901C0.057,2.194,2.251,0,4.958,0h18.085
		c2.707,0,4.9,2.194,4.9,4.901v16.395C27.943,24.003,25.75,26.197,23.043,26.197z"/>
	<g>
		<path fill="#FFFFFF" d="M13.982,22.523c-1.584,0-3.168,0.005-4.752-0.002c-0.667-0.002-1.335-0.057-1.962-0.298
			c-1.516-0.585-2.376-1.702-2.616-3.302c-0.062-0.413-0.079-0.83-0.079-1.248c0-3.05,0.001-6.1,0.003-9.15
			c0.001-0.529,0.025-1.057,0.131-1.576C5.053,5.238,6.4,3.982,8.132,3.75c0.434-0.058,0.869-0.078,1.307-0.078
			c3.135,0,6.271-0.002,9.405,0.006c0.807,0.003,1.605,0.092,2.334,0.479c1.258,0.669,1.976,1.72,2.172,3.13
			c0.074,0.539,0.062,1.081,0.064,1.621c0.013,2.913,0.011,5.826,0.014,8.74c0,0.602-0.033,1.2-0.181,1.785
			c-0.414,1.65-1.73,2.792-3.461,3.014c-0.382,0.049-0.765,0.074-1.149,0.074c-0.307,0-0.613,0.004-0.92,0.004
			c-1.244,0.001-2.49,0-3.734,0C13.982,22.525,13.982,22.524,13.982,22.523z M20.996,13.096L20.996,13.096
			c0-0.814-0.002-1.629,0.002-2.444c0-0.287-0.012-0.574-0.057-0.857c-0.336-2.137-2.11-3.673-4.285-3.688
			c-1.772-0.013-3.546-0.004-5.319,0c-0.214,0-0.43,0.02-0.642,0.053c-2.141,0.34-3.673,2.109-3.688,4.284
			c-0.013,1.772-0.005,3.546,0,5.319c0,0.214,0.02,0.43,0.053,0.642c0.339,2.142,2.106,3.671,4.283,3.688
			c1.773,0.014,3.547,0.005,5.319,0c0.221,0,0.443-0.021,0.662-0.057c2.129-0.343,3.648-2.113,3.67-4.279
			C21.003,14.869,20.996,13.982,20.996,13.096z"/>
		<path fill="#FFFFFF" d="M19.789,13.09c0,0.88,0.002,1.76,0,2.639c-0.004,1.771-1.385,3.156-3.15,3.159
			c-1.76,0.003-3.52,0.003-5.279-0.001c-1.757-0.002-3.145-1.387-3.148-3.14c-0.003-1.767-0.003-3.532,0-5.298
			c0.004-1.744,1.39-3.135,3.131-3.139c1.772-0.004,3.545-0.004,5.318,0c1.732,0.004,3.121,1.392,3.129,3.121
			C19.793,11.317,19.789,12.203,19.789,13.09z M10.523,13.107c0.004,1.896,1.576,3.471,3.465,3.469
			c1.926-0.003,3.496-1.58,3.488-3.507c-0.007-1.888-1.588-3.452-3.486-3.447C12.087,9.627,10.519,11.202,10.523,13.107z
			 M16.97,9.271c-0.011,0.481,0.357,0.871,0.833,0.882c0.454,0.011,0.857-0.378,0.867-0.834c0.01-0.47-0.357-0.861-0.82-0.875
			C17.364,8.43,16.98,8.791,16.97,9.271z"/>
		<path fill="#FFFFFF" d="M14.005,15.367c-1.261,0.002-2.274-1.012-2.273-2.272c0.001-1.249,1.013-2.263,2.262-2.265
			c1.259-0.002,2.276,1.015,2.275,2.273C16.269,14.352,15.254,15.366,14.005,15.367z"/>
	</g>
</g>
</svg>
