<?xml version="1.0" encoding="utf-8"?>
<!-- Generator: Adobe Illustrator 15.1.0, SVG Export Plug-In . SVG Version: 6.00 Build 0)  -->
<!DOCTYPE svg PUBLIC "-//W3C//DTD SVG 1.1//EN" "http://www.w3.org/Graphics/SVG/1.1/DTD/svg11.dtd">
<svg version="1.1" id="Layer_1" xmlns="http://www.w3.org/2000/svg" xmlns:xlink="http://www.w3.org/1999/xlink" x="0px" y="0px"
	 width="26.2px" height="26.6px" viewBox="0 0 26.2 26.6" enable-background="new 0 0 26.2 26.6" xml:space="preserve">
<g>
	<path fill="#3F9BD6" d="M13.088,0c7.207-0.011,13.102,5.845,13.109,13.024c0.008,7.258-5.83,13.164-13.023,13.173
		C5.87,26.207-0.001,20.369,0,13.095C0.001,5.849,5.835,0.011,13.088,0z M19.908,13.456c-0.002-0.612-0.066-1.11-0.172-1.604
		c-0.701-3.285-3.941-5.582-7.259-5.133c-0.185,0.025-0.323-0.003-0.479-0.094c-0.793-0.462-1.655-0.631-2.555-0.469
		c-2.775,0.5-4.181,3.481-2.816,5.95c0.073,0.132,0.101,0.255,0.082,0.405c-0.082,0.655-0.063,1.307,0.042,1.961
		c0.565,3.5,3.842,5.961,7.347,5.503c0.246-0.032,0.467-0.022,0.701,0.114c0.516,0.303,1.096,0.429,1.691,0.441
		c2.848,0.059,4.846-2.909,3.719-5.557C19.98,14.438,19.744,13.941,19.908,13.456z"/>
	<path fill="#FFFFFF" d="M19.908,13.456c-0.164,0.485,0.072,0.983,0.301,1.517c1.127,2.647-0.871,5.615-3.719,5.557
		c-0.596-0.013-1.176-0.139-1.691-0.441c-0.234-0.137-0.455-0.146-0.701-0.114c-3.504,0.458-6.782-2.003-7.347-5.503
		c-0.105-0.655-0.124-1.306-0.042-1.961c0.019-0.149-0.009-0.273-0.082-0.405c-1.364-2.469,0.041-5.45,2.816-5.95
		c0.899-0.162,1.761,0.007,2.555,0.469c0.155,0.091,0.293,0.119,0.479,0.094c3.318-0.449,6.558,1.848,7.259,5.133
		C19.842,12.345,19.906,12.844,19.908,13.456z M13.086,8.533c-0.2,0-0.401-0.015-0.6,0.002c-1.011,0.085-1.904,0.441-2.482,1.31
		c-0.864,1.299-0.881,2.836,0.786,3.792c0.736,0.423,1.533,0.646,2.362,0.786c0.553,0.094,1.098,0.223,1.572,0.544
		c0.496,0.335,0.559,0.733,0.211,1.211c-0.197,0.271-0.451,0.481-0.771,0.557c-0.974,0.226-1.866,0.062-2.614-0.644
		c-0.242-0.229-0.433-0.507-0.709-0.701c-0.372-0.264-0.797-0.31-1.12-0.101c-0.379,0.245-0.447,0.621-0.384,1.03
		c0.042,0.276,0.182,0.518,0.362,0.73c0.179,0.211,0.386,0.395,0.602,0.567c0.998,0.804,2.171,0.935,3.392,0.896
		c0.984-0.033,1.853-0.357,2.609-0.994c1.104-0.934,1.318-2.26,0.531-3.374c-0.34-0.48-0.805-0.802-1.334-1.04
		c-0.758-0.339-1.57-0.496-2.371-0.69c-0.431-0.104-0.881-0.152-1.271-0.391c-0.512-0.313-0.593-0.821-0.203-1.275
		c0.17-0.198,0.377-0.347,0.618-0.447c0.868-0.36,1.637-0.136,2.343,0.41c0.309,0.238,0.596,0.504,0.902,0.746
		c0.518,0.408,1.125,0.208,1.303-0.435c0.168-0.611-0.148-1.044-0.58-1.413C15.336,8.833,14.273,8.492,13.086,8.533z"/>
	<path fill="#3F9BD6" d="M13.086,8.533c1.188-0.041,2.25,0.3,3.156,1.077c0.432,0.369,0.748,0.801,0.58,1.413
		c-0.178,0.643-0.785,0.843-1.303,0.435c-0.307-0.241-0.594-0.507-0.902-0.746c-0.707-0.546-1.475-0.77-2.343-0.41
		c-0.241,0.1-0.448,0.249-0.618,0.447c-0.391,0.454-0.31,0.961,0.203,1.275c0.39,0.239,0.84,0.287,1.271,0.391
		c0.801,0.194,1.613,0.351,2.371,0.69c0.529,0.237,0.994,0.56,1.334,1.04c0.787,1.114,0.572,2.44-0.531,3.374
		c-0.756,0.637-1.625,0.961-2.609,0.994c-1.221,0.039-2.395-0.092-3.392-0.896c-0.215-0.173-0.422-0.356-0.602-0.567
		c-0.18-0.213-0.32-0.454-0.362-0.73c-0.063-0.409,0.004-0.785,0.384-1.03c0.323-0.209,0.748-0.163,1.12,0.101
		c0.276,0.194,0.467,0.473,0.709,0.701c0.748,0.705,1.64,0.869,2.614,0.644c0.32-0.075,0.574-0.286,0.771-0.557
		c0.348-0.478,0.285-0.876-0.211-1.211c-0.475-0.321-1.019-0.45-1.572-0.544c-0.829-0.14-1.625-0.362-2.362-0.786
		c-1.667-0.956-1.65-2.493-0.786-3.792c0.578-0.869,1.471-1.225,2.482-1.31C12.685,8.518,12.886,8.533,13.086,8.533z"/>
</g>
</svg>
