<?xml version="1.0" encoding="utf-8"?>
<!-- Generator: Adobe Illustrator 15.1.0, SVG Export Plug-In . SVG Version: 6.00 Build 0)  -->
<!DOCTYPE svg PUBLIC "-//W3C//DTD SVG 1.1//EN" "http://www.w3.org/Graphics/SVG/1.1/DTD/svg11.dtd">
<svg version="1.1" id="Layer_1" xmlns="http://www.w3.org/2000/svg" xmlns:xlink="http://www.w3.org/1999/xlink" x="0px" y="0px"
	 width="28px" height="26.2px" viewBox="0 0 28 26.2" enable-background="new 0 0 28 26.2" xml:space="preserve">
<g>
	<path fill="#6DB8E6" d="M23.043,26.197H4.958c-2.707,0-4.901-2.194-4.901-4.901V4.901C0.057,2.194,2.251,0,4.958,0h18.085
		c2.707,0,4.9,2.194,4.9,4.901v16.395C27.943,24.003,25.75,26.197,23.043,26.197z"/>
	<path fill="#FFFFFF" d="M21.057,9.514c-0.021,0.111-0.092,0.192-0.152,0.264c-0.346,0.438-0.723,0.822-1.158,1.148
		c-0.061,0.051-0.082,0.091-0.082,0.162c0.021,0.619-0.041,1.239-0.152,1.859c-0.131,0.66-0.346,1.311-0.629,1.93
		c-0.316,0.691-0.723,1.342-1.221,1.932c-0.518,0.629-1.117,1.158-1.797,1.595c-0.904,0.579-1.88,0.955-2.927,1.138
		c-0.955,0.173-1.91,0.193-2.875,0.031c-0.935-0.143-1.818-0.447-2.651-0.895c-0.163-0.082-0.305-0.173-0.458-0.274
		c-0.01,0-0.01-0.011-0.01-0.03c1.555,0.143,2.967-0.254,4.206-1.209c-0.254-0.011-0.508-0.062-0.762-0.143
		c-0.803-0.264-1.392-0.771-1.768-1.524c-0.021-0.05-0.041-0.081-0.051-0.122c-0.021-0.08-0.112-0.152-0.062-0.213
		c0.041-0.061,0.152-0.021,0.234,0c0.324,0.041,0.762,0.01,0.975-0.092c-0.843-0.223-1.483-0.701-1.899-1.442
		c-0.254-0.446-0.376-0.925-0.355-1.442c0.396,0.193,0.792,0.335,1.26,0.335c-0.355-0.284-0.641-0.579-0.854-0.935
		c-0.295-0.508-0.406-1.057-0.387-1.646c0.011-0.416,0.133-0.803,0.315-1.178C7.839,8.68,7.869,8.629,7.961,8.73
		c0.762,0.914,1.676,1.637,2.743,2.145c0.854,0.406,1.737,0.68,2.692,0.762c0.121,0.02,0.243,0.02,0.355,0.051
		c0.122,0.01,0.122-0.051,0.111-0.133c-0.061-0.355-0.061-0.701,0-1.057c0.122-0.67,0.438-1.229,0.945-1.666
		c0.559-0.498,1.219-0.741,1.961-0.73c0.771,0.01,1.441,0.294,2.012,0.832c0.07,0.071,0.141,0.082,0.242,0.062
		c0.58-0.132,1.139-0.356,1.697-0.671c-0.223,0.691-0.641,1.189-1.209,1.575C19.766,9.92,20.66,9.686,21.057,9.514z"/>
</g>
</svg>
