<?xml version="1.0" encoding="utf-8"?>
<!-- Generator: Adobe Illustrator 15.1.0, SVG Export Plug-In . SVG Version: 6.00 Build 0)  -->
<!DOCTYPE svg PUBLIC "-//W3C//DTD SVG 1.1//EN" "http://www.w3.org/Graphics/SVG/1.1/DTD/svg11.dtd">
<svg version="1.1" id="Layer_1" xmlns="http://www.w3.org/2000/svg" xmlns:xlink="http://www.w3.org/1999/xlink" x="0px" y="0px"
	 width="26.2px" height="26.6px" viewBox="0 0 26.2 26.6" enable-background="new 0 0 26.2 26.6" xml:space="preserve">
<g>
	<circle fill="#54B848" cx="13.099" cy="13.099" r="13.099"/>
	<path fill="#010103" d="M12.145,26.549h-0.102c-0.016-0.027-0.001-0.041,0.025-0.045C12.104,26.5,12.133,26.512,12.145,26.549z"/>
	<path fill="#010103" d="M14.189,26.549h-0.051c-0.012-0.025-0.002-0.043,0.025-0.043S14.201,26.523,14.189,26.549z"/>
	<g>
		<path fill="#FCFDFC" d="M4.86,21.35c0.372-1.316,0.731-2.596,1.099-3.873c0.045-0.16,0.028-0.285-0.049-0.432
			c-1.378-2.619-1.405-5.271-0.021-7.873c1.196-2.25,3.109-3.664,5.61-4.151c2.845-0.554,5.353,0.222,7.429,2.248
			c1.309,1.279,2.088,2.858,2.328,4.685c0.314,2.367-0.281,4.492-1.783,6.335c-1.326,1.623-3.047,2.604-5.131,2.918
			c-1.793,0.271-3.492-0.02-5.095-0.867c-0.118-0.061-0.223-0.063-0.35-0.029C7.565,20.658,6.232,20.998,4.86,21.35z M13.112,19.916
			c1.552-0.023,2.956-0.469,4.167-1.432c1.98-1.576,2.857-3.65,2.623-6.163C19.758,10.77,19.098,9.42,18,8.311
			c-1.428-1.443-3.172-2.139-5.203-2.053C11.11,6.331,9.643,6.963,8.417,8.127c-1.264,1.2-1.97,2.681-2.113,4.413
			c-0.129,1.563,0.255,3.008,1.116,4.321c0.085,0.131,0.09,0.242,0.05,0.383c-0.187,0.646-0.358,1.297-0.552,1.941
			c-0.063,0.211,0.011,0.197,0.164,0.156C7.747,19.166,8.415,19,9.079,18.818c0.16-0.043,0.283-0.02,0.425,0.066
			C10.612,19.566,11.819,19.912,13.112,19.916z"/>
		<path fill="#54B848" d="M13.112,19.916c-1.293-0.004-2.5-0.35-3.608-1.031c-0.142-0.086-0.265-0.109-0.425-0.066
			C8.415,19,7.747,19.166,7.082,19.342c-0.153,0.041-0.228,0.055-0.164-0.156c0.194-0.645,0.365-1.295,0.552-1.941
			c0.04-0.141,0.035-0.252-0.05-0.383c-0.861-1.313-1.246-2.758-1.116-4.321c0.143-1.732,0.849-3.213,2.113-4.413
			c1.227-1.164,2.694-1.797,4.381-1.869c2.031-0.086,3.775,0.61,5.203,2.053c1.098,1.109,1.758,2.458,1.902,4.01
			c0.234,2.513-0.643,4.587-2.623,6.163C16.068,19.447,14.664,19.893,13.112,19.916z M10.47,9.238
			c-0.275-0.031-0.5-0.007-0.697,0.169c-0.708,0.637-0.957,1.414-0.745,2.344c0.181,0.797,0.601,1.467,1.097,2.098
			c1.149,1.458,2.575,2.515,4.374,3.052c1.195,0.357,2.563-0.125,2.783-1.582c0.045-0.295,0.02-0.377-0.256-0.506
			c-0.535-0.246-1.07-0.49-1.604-0.74c-0.189-0.089-0.334-0.059-0.459,0.113c-0.197,0.264-0.402,0.521-0.604,0.783
			c-0.086,0.109-0.176,0.18-0.333,0.119c-1.245-0.479-2.22-1.276-2.896-2.434c-0.101-0.173-0.083-0.309,0.053-0.453
			c0.173-0.184,0.328-0.385,0.501-0.569c0.152-0.162,0.167-0.327,0.08-0.525c-0.204-0.461-0.419-0.919-0.591-1.393
			C11.042,9.348,10.836,9.16,10.47,9.238z"/>
		<path fill="#FCFDFC" d="M10.47,9.238c0.367-0.078,0.572,0.11,0.705,0.476c0.172,0.474,0.387,0.932,0.591,1.393
			c0.087,0.198,0.072,0.364-0.08,0.525c-0.173,0.184-0.328,0.386-0.501,0.569c-0.136,0.144-0.154,0.28-0.053,0.453
			c0.675,1.158,1.65,1.956,2.896,2.434c0.157,0.061,0.247-0.01,0.333-0.119c0.201-0.262,0.406-0.52,0.604-0.783
			c0.125-0.172,0.27-0.203,0.459-0.113c0.533,0.25,1.068,0.494,1.604,0.74c0.275,0.129,0.301,0.211,0.256,0.506
			c-0.221,1.457-1.588,1.939-2.783,1.582c-1.798-0.537-3.225-1.594-4.374-3.052c-0.496-0.631-0.916-1.3-1.097-2.098
			c-0.211-0.93,0.037-1.707,0.745-2.344C9.969,9.23,10.195,9.207,10.47,9.238z"/>
	</g>
</g>
</svg>
